<svg width="100" height="89" viewBox="0 0 100 89" fill="none" xmlns="http://www.w3.org/2000/svg">
<g opacity="0.1">
<path d="M-3.43242e-06 9.99995C-3.67383e-06 4.4771 4.50572 -0.0838212 9.95823 0.794807C20.2503 2.4533 29.8021 6.65955 37.3195 12.9641C47.2173 21.2649 52.7778 32.5232 52.7778 44.2622C52.7778 56.0013 47.2173 67.2596 37.3195 75.5604C29.8021 81.8649 20.2504 86.0712 9.95824 87.7297C4.50573 88.6083 6.50676e-06 84.0474 5.33493e-06 78.5245L-1.93477e-06 44.2622L-3.43242e-06 9.99995Z" fill="#FFA91F"/>
<path d="M100 9.99995C100 4.4771 95.4943 -0.0838209 90.0418 0.794808C79.7496 2.4533 70.1979 6.65955 62.6805 12.9641C52.7827 21.2649 47.2222 32.5232 47.2222 44.2622C47.2222 56.0013 52.7827 67.2596 62.6805 75.5604C70.1979 81.8649 79.7496 86.0712 90.0418 87.7297C95.4943 88.6083 100 84.0474 100 78.5245L100 44.2622L100 9.99995Z" fill="#FFA91F"/>
</g>
</svg>
