<svg width="322" height="322" viewBox="0 0 322 322" fill="none" xmlns="http://www.w3.org/2000/svg">
<path d="M160.673 321.34C72.0826 321.34 0 249.261 0 160.666C0 72.0713 72.0826 0 160.673 0C249.264 0 321.346 72.0794 321.346 160.666C321.346 249.253 249.264 321.332 160.673 321.332V321.34ZM160.673 6.47977C75.6548 6.47977 6.48006 75.6513 6.48006 160.666C6.48006 245.681 75.6548 314.852 160.673 314.852C245.692 314.852 314.866 245.681 314.866 160.666C314.866 75.6513 245.7 6.47977 160.673 6.47977Z" fill="#292929"/>
<path d="M182.826 182.682C182.883 193.462 185.183 205.409 191.129 214.052L214.254 190.927C205.579 184.998 193.599 182.714 182.826 182.682Z" fill="#292929"/>
<path d="M139.556 97.53C143.185 102.114 146.085 107.622 148.151 113.964C152.306 126.705 152.144 139.227 151.682 145.553C151.423 149.125 148.313 151.806 144.749 151.539C144.587 151.531 144.425 151.498 144.263 151.482C128.516 152.389 110.38 149.312 97.7358 139.357L76.627 160.465L97.8168 181.654C102.288 178.227 107.602 175.474 113.693 173.497C125.543 169.634 137.191 169.504 143.85 169.877C144.003 169.852 144.165 169.828 144.327 169.82C147.9 169.561 151.002 172.242 151.261 175.806C152.428 191.714 149.544 210.367 139.532 223.375L160.681 244.524L181.855 223.351C178.404 218.864 175.626 213.518 173.634 207.395C169.478 194.654 169.64 182.132 170.102 175.806C170.361 172.234 173.48 169.553 177.036 169.82C177.198 169.828 177.36 169.86 177.522 169.877C193.066 168.986 210.951 171.966 223.571 181.629L244.728 160.473L223.595 139.341C219.026 142.937 213.543 145.812 207.241 147.87C195.39 151.733 183.742 151.863 177.084 151.49C176.93 151.515 176.768 151.539 176.606 151.547C173.026 151.814 169.932 149.125 169.673 145.561C168.49 129.459 171.463 110.546 181.774 97.5138L160.673 76.4141L139.548 97.5381L139.556 97.53Z" fill="#292929"/>
<path d="M107.018 130.059C115.733 136.247 127.956 138.628 138.948 138.66C138.891 127.669 136.494 115.471 130.289 106.788L107.018 130.059Z" fill="#292929"/>
<path d="M191.065 106.797C184.861 115.48 182.463 127.678 182.406 138.669C193.398 138.637 205.621 136.256 214.337 130.067L191.065 106.797Z" fill="#292929"/>
<path d="M119.166 223.65L119.458 223.504C119.879 223.302 120.292 223.083 120.697 222.856L98.2519 200.412C98.0089 200.849 97.774 201.295 97.5553 201.749L97.4095 202.04C93.2541 209.702 91.1643 219.438 92.193 228.85C101.654 229.919 111.455 227.83 119.166 223.65Z" fill="#292929"/>
<path d="M234.984 125.335C234.23 126.89 233.364 128.381 232.416 129.814L253.703 151.1C263.982 137.209 259.454 113.145 252.488 104.786C249.507 101.206 245.992 98.4847 242.16 96.4922C242.363 105.718 240.241 115.583 234.984 125.335Z" fill="#292929"/>
<path d="M201.894 223.504L202.185 223.65C209.896 227.83 219.698 229.919 229.158 228.85C230.179 219.438 228.097 209.702 223.942 202.04L223.796 201.749C223.578 201.295 223.343 200.849 223.1 200.412L200.654 222.856C201.059 223.083 201.472 223.302 201.894 223.504Z" fill="#292929"/>
<path d="M119.881 97.8375L119.589 97.6917C111.878 93.5122 102.077 91.4225 92.616 92.4917C91.5954 101.904 93.6771 111.639 97.8324 119.302L97.9782 119.593C98.1078 119.861 98.2455 120.112 98.3832 120.371L120.561 98.1939C120.334 98.0724 120.116 97.9509 119.881 97.8375Z" fill="#292929"/>
<path d="M201.765 97.6917L201.473 97.8375C201.238 97.9509 201.02 98.0724 200.793 98.1939L222.971 120.371C223.109 120.112 223.246 119.861 223.376 119.593L223.522 119.302C227.677 111.639 229.767 101.895 228.738 92.4917C219.277 91.4225 209.476 93.5122 201.765 97.6917Z" fill="#292929"/>
<path d="M130.224 214.052C136.169 205.409 138.47 193.454 138.526 182.682C127.745 182.714 115.773 184.998 107.09 190.927L130.216 214.052H130.224Z" fill="#292929"/>
<path d="M232.506 191.008C233.575 192.572 234.555 194.232 235.414 196.006C240.671 205.758 242.793 215.623 242.59 224.849C246.414 222.856 249.937 220.127 252.918 216.555C259.965 208.099 264.509 183.581 253.76 169.763L232.514 191.008H232.506Z" fill="#292929"/>
<path d="M196.152 235.119C194.443 234.292 192.815 233.329 191.251 232.268L169.98 253.537C183.767 264.367 208.375 259.823 216.848 252.76C220.476 249.739 223.23 246.159 225.231 242.271C224.753 242.287 224.275 242.311 223.789 242.311C214.912 242.311 205.483 240.14 196.152 235.119Z" fill="#292929"/>
<path d="M130.111 232.276C128.572 233.321 126.944 234.276 125.202 235.119C115.871 240.149 106.442 242.311 97.5727 242.311C97.0867 242.311 96.6169 242.287 96.1309 242.271C98.1316 246.159 100.886 249.731 104.506 252.76C112.979 259.823 137.579 264.367 151.373 253.537L130.103 232.268L130.111 232.276Z" fill="#292929"/>
<path d="M191.323 88.7257C192.716 87.8104 194.174 86.968 195.721 86.2229C205.555 80.9257 215.493 78.8035 224.784 79.0465C222.783 75.1668 220.038 71.5948 216.417 68.5817C208.041 61.5997 183.903 57.072 170.02 67.4234L191.323 88.7257Z" fill="#292929"/>
<path d="M160.672 21.5303C83.827 21.5303 21.5293 83.8252 21.5293 160.667C21.5293 237.509 83.827 299.804 160.672 299.804C237.518 299.804 299.816 237.509 299.816 160.667C299.816 83.8252 237.526 21.5303 160.672 21.5303ZM240.134 239.761C237.186 249.14 231.807 257.159 225.141 262.716C217.762 268.863 204.956 273.01 191.817 273.01C180.631 273.01 169.21 269.997 160.681 262.675C152.143 269.997 140.722 273.01 129.536 273.01C116.397 273.01 103.591 268.863 96.212 262.716C89.5457 257.159 84.1753 249.14 81.2188 239.761C71.9361 236.796 63.998 231.459 58.4819 224.849C47.1012 211.193 42.5976 178.964 58.5062 160.408C43.116 141.762 47.6359 110.012 58.9112 96.4931C64.4273 89.8757 72.3654 84.538 81.6481 81.5735C84.5965 72.194 89.975 64.1834 96.6332 58.627C110.193 47.3279 142.058 42.8163 160.672 58.3192C179.303 42.8163 211.16 47.336 224.712 58.627C231.378 64.1834 236.748 72.194 239.697 81.5735C248.988 84.538 256.926 89.8838 262.434 96.4931C273.709 110.02 278.229 141.779 262.839 160.408C278.747 178.973 274.236 211.193 262.863 224.849C257.355 231.459 249.409 236.796 240.126 239.761H240.134Z" fill="#292929"/>
<path d="M125.623 86.2214C127.146 86.9585 128.612 87.809 130.022 88.7323L151.333 67.422C137.458 57.0624 113.311 61.5983 104.936 68.5802C101.315 71.6014 98.561 75.1653 96.5684 79.0451C105.859 78.8021 115.798 80.9242 125.631 86.2214H125.623Z" fill="#292929"/>
<path d="M88.9302 129.823C87.9987 128.405 87.132 126.915 86.3706 125.335C81.1136 115.583 78.9914 105.718 79.1939 96.4922C75.3706 98.4847 71.8471 101.214 68.8663 104.786C61.9002 113.145 57.3723 137.201 67.6513 151.1L88.9302 129.823Z" fill="#292929"/>
<path d="M85.942 196.006C86.7844 194.264 87.7645 192.604 88.8499 191.016L67.5953 169.763C56.8465 183.565 61.3906 208.091 68.4377 216.555C71.4185 220.135 74.934 222.856 78.7653 224.849C78.5628 215.623 80.685 205.758 85.942 196.006Z" fill="#292929"/>
</svg>
