<svg width="268" height="268" viewBox="0 0 268 268" fill="none" xmlns="http://www.w3.org/2000/svg">
<path fill-rule="evenodd" clip-rule="evenodd" d="M268 134C268 208.006 208.006 268 134 268C59.9938 268 0 208.006 0 134C0 59.9938 59.9938 0 134 0C208.006 0 268 59.9938 268 134ZM237.192 161.374H251.727C250.582 166.145 249.137 170.847 247.398 175.451C246.962 176.605 246.508 177.753 246.035 178.895C240.139 193.128 231.498 206.061 220.604 216.954C209.71 227.848 196.778 236.489 182.544 242.385C172.667 246.476 162.298 249.19 151.728 250.467C147.066 251.031 142.365 251.315 137.65 251.315V237.237L137.65 175.451V161.374H151.728H180.405V147.556H151.728H137.65V133.479V119.401V105.323H151.728H237.759H251.837V119.401V133.479V147.556H237.759H194.482V161.374H237.192ZM151.728 175.451L151.728 236.273C160.445 235.073 168.992 232.761 177.157 229.379C189.682 224.191 201.063 216.586 210.65 207C219.738 197.912 227.044 187.211 232.2 175.451H151.728ZM151.728 119.401H237.759V133.479H151.728V119.401ZM194.483 62.0471V75.0814H232.636C238.086 79.8961 242.646 85.1423 246.163 90.7234H137.649V75.0814H178.841V62.0471H137.649V46.405H178.841V24.6763C184.258 26.7184 189.484 29.1516 194.483 31.9415V46.405H214.903C220.284 51.1541 225.224 56.3912 229.653 62.0471H194.483ZM15.2305 161.374H29.7652H74.0389V147.556H29.1984H15.1206V133.479V119.401V105.323H29.1984H115.23H129.307V119.401V133.479V147.556H115.23H88.1167V161.374H115.23H129.307V175.451L129.307 237.237V251.315C124.592 251.315 119.891 251.031 115.23 250.467C104.659 249.19 94.29 246.476 84.4128 242.385C70.1795 236.489 57.2467 227.848 46.353 216.954C35.4593 206.061 26.8179 193.128 20.9223 178.895C20.4495 177.753 19.9952 176.605 19.5593 175.451C17.8202 170.847 16.3753 166.145 15.2305 161.374ZM115.23 236.273L115.23 175.451H34.7572C39.9127 187.211 47.2195 197.912 56.3075 207C65.894 216.586 77.2748 224.191 89.8002 229.379C97.9653 232.761 106.513 235.073 115.23 236.273ZM29.1984 119.401H115.23V133.479H29.1984V119.401ZM72.4743 75.0814V62.0471H37.3043C41.7338 56.3912 46.6735 51.1541 52.0542 46.405H72.4742V31.9415C77.4735 29.1516 82.699 26.7184 88.1163 24.6763V46.405H129.308V62.0471H88.1163V75.0814H129.308V90.7234H20.7945C22.9605 85.297 25.5218 80.0711 28.4427 75.0814H72.4743Z" fill="black"/>
</svg>
