<svg width="225" height="225" viewBox="0 0 225 225" fill="none" xmlns="http://www.w3.org/2000/svg">
<g clip-path="url(#clip0_2654_20837)">
<path d="M124.478 51.1229C127.357 51.1229 129.691 48.789 129.691 45.9101C129.691 43.0311 127.357 40.6973 124.478 40.6973C121.599 40.6973 119.266 43.0311 119.266 45.9101C119.266 48.789 121.599 51.1229 124.478 51.1229Z" fill="#231815"/>
<path d="M112.503 108.598L66.2355 80.9733C65.7096 80.6381 53.3191 72.4837 55.7232 53.268C58.2371 33.1796 76.4357 24.6785 87.3179 24.037C95.0677 23.5804 102.234 26.0481 106.482 30.6368C109.799 34.2141 111.18 38.8374 110.481 43.9982C109.949 47.7084 107.684 50.6616 104.418 51.9214C101.679 52.979 98.7202 52.5976 96.7032 50.9216C94.8308 49.3728 94.4262 46.5873 95.7092 44.1485C96.9864 41.7212 99.9511 39.7447 103.684 40.8139L102.442 45.1714C102.881 44.8593 103.448 44.2294 103.615 43.0389C104.031 39.9817 103.286 37.3868 101.402 35.3526C98.5872 32.3127 93.3513 30.6368 87.734 30.9662C78.4353 31.5152 64.496 39.0628 62.612 54.1348C60.8147 68.5134 69.2233 74.6162 69.9631 75.1248L112.515 100.53L155.073 75.119C155.691 74.6971 164.221 68.6059 162.412 54.1348C160.528 39.0628 146.589 31.5152 137.29 30.9662C131.679 30.6368 126.437 32.3185 123.623 35.3526C121.733 37.3868 120.993 39.9817 121.409 43.062C121.577 44.2294 122.143 44.8535 122.582 45.1656L121.34 40.8081C125.073 39.7447 128.032 41.7154 129.315 44.1427C130.598 46.5815 130.193 49.367 128.321 50.9159C126.304 52.5918 123.345 52.9732 120.606 51.9156C117.341 50.6558 115.075 47.7026 114.549 44.0155C113.844 38.8316 115.225 34.2141 118.543 30.631C122.79 26.0424 129.957 23.5804 137.706 24.0312C148.589 24.6727 166.793 33.1738 169.301 53.2622C171.705 72.4779 159.315 80.6265 158.789 80.9675L158.696 81.0253L112.515 108.598H112.503ZM123.114 47.0612C123.114 47.1825 123.126 47.2808 123.154 47.3501C123.166 47.379 123.189 47.4021 123.218 47.4137L123.114 47.0554V47.0612ZM101.893 47.0612L101.789 47.4137C101.789 47.4137 101.841 47.379 101.847 47.3501C101.876 47.2808 101.887 47.1767 101.887 47.0612H101.893Z" fill="#231815"/>
<path d="M100.523 51.1248C103.402 51.1248 105.736 48.791 105.736 45.912C105.736 43.0331 103.402 40.6992 100.523 40.6992C97.6444 40.6992 95.3105 43.0331 95.3105 45.912C95.3105 48.791 97.6444 51.1248 100.523 51.1248Z" fill="#231815"/>
<path d="M112.503 17.8008C105.25 17.8008 98.7891 18.6908 98.7891 18.6908C103.638 22.1063 109.764 27.3826 112.503 36.0918C115.242 27.3826 121.368 22.1063 126.217 18.6908C126.217 18.6908 119.762 17.8008 112.503 17.8008Z" fill="#231815"/>
<path d="M48.8398 140.637C51.7187 140.637 54.0526 138.303 54.0526 135.424C54.0526 132.545 51.7187 130.211 48.8398 130.211C45.9608 130.211 43.627 132.545 43.627 135.424C43.627 138.303 45.9608 140.637 48.8398 140.637Z" fill="#231815"/>
<path d="M76.9776 193.914C63.8126 193.914 53.075 185.523 48.4805 178.547C44.2097 172.063 42.7649 164.625 44.6143 158.65C46.0591 153.986 49.3648 150.478 54.1846 148.507C57.6578 147.114 61.3507 147.594 64.0727 149.796C66.3613 151.64 67.5055 154.39 67.0663 156.979C66.656 159.372 64.4541 161.123 61.6975 161.227C58.9639 161.308 55.7681 159.753 54.8203 155.991L59.2182 154.893C58.727 154.674 57.9006 154.494 56.7852 154.939C53.9303 156.107 52.0578 158.049 51.2372 160.701C50.012 164.654 51.1794 170.035 54.2713 174.733C59.3916 182.512 72.9033 190.811 86.8946 184.904C100.244 179.27 101.325 168.937 101.395 168.047L102.117 118.496L58.831 94.3449C58.1606 94.0213 48.6192 89.6754 36.9916 98.477C24.8785 107.643 25.3119 123.495 29.4844 131.817C32.0099 136.845 36.0842 140.544 40.1181 141.462C42.8227 142.075 45.4465 141.428 47.9026 139.521C48.8331 138.792 49.0874 137.989 49.1394 137.452L45.9897 140.705C43.1984 138.006 43.4296 134.458 44.8917 132.135C46.3596 129.8 48.9718 128.766 51.2545 129.609C53.7165 130.522 55.5253 132.892 55.9761 135.793C56.5193 139.255 55.0919 142.693 52.1676 144.988C48.0298 148.189 43.3371 149.305 38.5808 148.218C32.4838 146.831 26.7625 141.861 23.2834 134.92C18.3942 125.177 16.6605 105.164 32.8017 92.9406C48.2436 81.2552 61.4952 87.907 62.05 88.1959L62.1425 88.2479L109.11 114.456L108.318 168.341C108.289 168.965 107.422 183.772 89.5819 191.296C85.2244 193.134 80.9825 193.914 76.966 193.914H76.9776ZM61.4201 154.298C61.4201 154.298 61.4085 154.298 61.4027 154.298C61.3276 154.31 61.2351 154.35 61.1311 154.408L61.4894 154.321C61.4894 154.321 61.4432 154.298 61.4201 154.298ZM50.7806 135.764L50.5264 136.03C50.6304 135.972 50.7055 135.909 50.7575 135.851C50.7749 135.828 50.7806 135.799 50.7806 135.764Z" fill="#231815"/>
<path d="M60.8183 161.383C63.6972 161.383 66.0311 159.049 66.0311 156.17C66.0311 153.291 63.6972 150.957 60.8183 150.957C57.9393 150.957 55.6055 153.291 55.6055 156.17C55.6055 159.049 57.9393 161.383 60.8183 161.383Z" fill="#231815"/>
<path d="M30.4839 159.852C34.1132 166.134 38.1124 171.284 38.1124 171.284C38.6441 165.377 40.1524 157.431 46.3246 150.704C37.4131 152.686 29.7788 150.022 24.3984 147.531C24.3984 147.531 26.8546 153.57 30.4839 159.852Z" fill="#231815"/>
<path d="M164.18 161.383C167.059 161.383 169.392 159.049 169.392 156.17C169.392 153.291 167.059 150.957 164.18 150.957C161.301 150.957 158.967 153.291 158.967 156.17C158.967 159.049 161.301 161.383 164.18 161.383Z" fill="#231815"/>
<path d="M148.021 193.914C144.004 193.914 139.768 193.134 135.405 191.296C117.564 183.772 116.698 168.966 116.669 168.341V168.237L115.877 114.462L162.937 88.2018C163.491 87.9128 176.749 81.261 192.185 92.9465C208.326 105.164 206.592 125.177 201.703 134.926C198.224 141.867 192.503 146.837 186.406 148.224C181.65 149.305 176.957 148.195 172.836 145.005C169.889 142.693 168.467 139.255 169.005 135.793C169.461 132.892 171.27 130.523 173.726 129.609C176.003 128.766 178.621 129.806 180.089 132.135C181.551 134.458 181.782 138.007 178.991 140.705L175.842 137.452C175.894 137.989 176.154 138.793 177.096 139.532C179.534 141.422 182.152 142.075 184.863 141.457C188.897 140.538 192.977 136.845 195.496 131.811C199.669 123.484 200.102 107.637 187.989 98.4713C176.437 89.7275 166.942 93.9578 166.138 94.345L122.864 118.496L123.586 168.058C123.644 168.804 124.656 179.241 138.086 184.904C152.083 190.811 165.589 182.512 170.71 174.733C173.807 170.035 174.969 164.654 173.744 160.701C172.923 158.049 171.051 156.107 168.173 154.928C167.075 154.489 166.254 154.668 165.763 154.888L170.161 155.986C169.219 159.748 166.034 161.308 163.289 161.221C160.533 161.117 158.325 159.372 157.92 156.974C157.481 154.385 158.625 151.634 160.914 149.79C163.642 147.594 167.329 147.109 170.785 148.496C175.628 150.478 178.933 153.986 180.378 158.644C182.227 164.62 180.783 172.057 176.512 178.542C171.917 185.517 161.174 193.908 148.015 193.908L148.021 193.914ZM163.509 154.321L163.867 154.414C163.763 154.356 163.671 154.315 163.595 154.304C163.567 154.304 163.538 154.304 163.509 154.327V154.321ZM174.218 135.764C174.218 135.793 174.223 135.828 174.241 135.851C174.287 135.909 174.368 135.972 174.472 136.03L174.218 135.764Z" fill="#231815"/>
<path d="M176.16 140.637C179.039 140.637 181.373 138.303 181.373 135.424C181.373 132.545 179.039 130.211 176.16 130.211C173.281 130.211 170.947 132.545 170.947 135.424C170.947 138.303 173.281 140.637 176.16 140.637Z" fill="#231815"/>
<path d="M194.514 159.852C198.144 153.57 200.6 147.531 200.6 147.531C195.22 150.022 187.585 152.686 178.674 150.704C184.846 157.431 186.354 165.372 186.886 171.284C186.886 171.284 190.885 166.14 194.514 159.852Z" fill="#231815"/>
<path d="M112.503 225C50.4694 225 0 174.531 0 112.503C0 50.4752 50.4694 0 112.503 0C174.536 0 225.006 50.4694 225.006 112.503C225.006 174.536 174.536 225.006 112.503 225.006V225ZM112.503 11.5583C56.838 11.5583 11.5583 56.838 11.5583 112.503C11.5583 168.168 56.838 213.447 112.503 213.447C168.168 213.447 213.447 168.168 213.447 112.503C213.447 56.838 168.162 11.5583 112.503 11.5583Z" fill="#231815"/>
</g>
<defs>
<clipPath id="clip0_2654_20837">
<rect width="225" height="225" fill="white"/>
</clipPath>
</defs>
</svg>
