<svg width="225" height="226" viewBox="0 0 225 226" fill="none" xmlns="http://www.w3.org/2000/svg">
<g clip-path="url(#clip0_2654_22939)">
<path d="M20.8877 118.137L87.3782 118.137L87.3782 200.908L81.272 198.695C65.429 192.953 51.464 182.931 40.8906 169.712C30.1693 156.304 23.4542 140.228 21.4738 123.219L20.882 118.142L20.8877 118.137ZM78.273 127.242L31.2733 127.242C33.6918 140.666 39.4224 153.294 48.004 164.021C56.1475 174.202 66.5217 182.283 78.273 187.638L78.273 127.236L78.273 127.242Z" fill="#292929"/>
<path d="M20.8878 106.892L21.4796 101.816C23.46 84.806 30.175 68.7297 40.8964 55.3223C51.4697 42.1027 65.4348 32.0757 81.2778 26.3394L87.3839 24.1257L87.3839 106.897L20.8934 106.897L20.8878 106.892ZM78.2731 37.3851C66.5217 42.7458 56.1475 50.8209 48.0041 61.0017C39.4225 71.7344 33.6919 84.3564 31.2733 97.7808L78.2731 97.7808L78.2731 37.3794L78.2731 37.3851Z" fill="#292929"/>
<path d="M137.622 106.892L137.622 24.1201L143.728 26.3338C159.571 32.0758 173.53 42.0971 184.109 55.3167C194.831 68.724 201.546 84.8004 203.526 101.81L204.118 106.886L137.627 106.886L137.622 106.892ZM146.727 37.3852L146.727 97.7866L193.727 97.7866C191.308 84.3622 185.577 71.7344 176.996 61.0074C168.852 50.8267 158.478 42.7459 146.727 37.3909L146.727 37.3852Z" fill="#292929"/>
<path d="M137.622 200.908L137.622 118.137L204.118 118.137L203.526 123.213C201.546 140.222 194.831 156.299 184.109 169.706C173.536 182.926 159.571 192.953 143.728 198.689L137.622 200.903L137.622 200.908ZM146.727 127.242L146.727 187.643C158.478 182.283 168.852 174.207 176.996 164.027C185.577 153.294 191.308 140.672 193.727 127.248L146.727 127.248L146.727 127.242Z" fill="#292929"/>
<path d="M-0.0142795 112.514C-0.0142783 84.2142 10.5306 57.1661 29.6856 36.3551C48.7211 15.675 74.5627 2.92212 102.459 0.452346L107.415 0.0141602L107.415 225.014L102.459 224.576C74.5627 222.106 48.7211 209.353 29.6856 188.673C10.5363 167.862 -0.0142808 140.814 -0.0142795 112.514ZM98.3101 10.0811C74.5855 13.3418 52.7502 24.7404 36.3893 42.5239C18.7879 61.6504 9.09656 86.5075 9.09656 112.514C9.09656 138.521 18.7879 163.384 36.3893 182.504C52.7501 200.288 74.5855 211.686 98.3101 214.947L98.3101 10.0811Z" fill="#292929"/>
<path d="M117.59 225.014L117.59 0.0141555L122.547 0.452342C150.443 2.92212 176.284 15.675 195.32 36.3551C214.469 57.1661 225.014 84.2142 225.014 112.514C225.014 140.814 214.469 167.862 195.314 188.673C176.279 209.359 150.437 222.106 122.541 224.576L117.585 225.014L117.59 225.014ZM126.695 10.0811L126.695 214.947C150.42 211.686 172.255 200.288 188.616 182.504C206.218 163.378 215.909 138.521 215.909 112.514C215.909 86.5075 206.218 61.6447 188.616 42.5239C172.255 24.7404 150.42 13.3418 126.695 10.0811Z" fill="#292929"/>
<path d="M142.174 106.892L142.174 97.7866L82.8256 97.7866L82.8256 106.892L142.174 106.892Z" fill="#292929"/>
<path d="M142.174 127.242L142.174 118.137L82.8256 118.137L82.8256 127.242L142.174 127.242Z" fill="#292929"/>
<path d="M82.8257 87.8962L82.8257 78.791L67.3071 78.791L67.3071 87.8962L82.8257 87.8962Z" fill="#292929"/>
<path d="M82.8257 146.232L82.8257 137.126L67.3071 137.126L67.3071 146.232L82.8257 146.232Z" fill="#292929"/>
<path d="M71.8653 163.605C68.7183 161.101 62.7601 154.022 62.7601 154.022C60.7058 151.564 58.8335 148.952 57.1661 146.232L71.8653 146.232L71.8653 137.126L42.4328 137.126L45.4375 143.597C49.8365 153.078 56.3751 161.71 64.3478 168.568L71.871 175.038L71.871 163.611L71.8653 163.605Z" fill="#292929"/>
<path d="M71.8652 78.791L57.1661 78.791C58.8335 76.0651 60.7057 73.4588 62.7601 71.0004C62.7601 71.0004 68.7183 63.9211 71.8652 61.4172L71.8652 49.9902L64.3421 56.4606C56.3694 63.3179 49.8307 71.9508 45.4318 81.4315L42.4271 87.9019L71.8595 87.9019L71.8595 78.7967L71.8652 78.791Z" fill="#292929"/>
<path d="M167.839 146.232C166.172 148.952 164.3 151.558 162.245 154.017C162.245 154.017 156.287 161.096 153.14 163.6L153.14 175.027L160.663 168.556C168.636 161.699 175.175 153.066 179.574 143.591L182.578 137.121L153.146 137.121L153.146 146.226L167.845 146.226L167.839 146.232Z" fill="#292929"/>
<path d="M179.568 81.4258C175.169 71.9508 168.63 63.3236 160.658 56.4606L153.135 49.9902L153.135 61.4172C156.282 63.9211 162.24 71.0004 162.24 71.0004C164.294 73.4588 166.166 76.0651 167.834 78.7853L153.135 78.7853L153.135 87.8905L182.567 87.8905L179.562 81.4201L179.568 81.4258Z" fill="#292929"/>
<path d="M50.4226 122.695L50.4226 102.339L41.3174 102.339L41.3174 122.695L50.4226 122.695Z" fill="#292929"/>
</g>
<defs>
<clipPath id="clip0_2654_22939">
<rect width="225" height="225.028" fill="white"/>
</clipPath>
</defs>
</svg>
