<svg width="225" height="225" viewBox="0 0 225 225" fill="none" xmlns="http://www.w3.org/2000/svg">
<g clip-path="url(#clip0_2706_44038)">
<path d="M20.8877 118.122L87.3782 118.122L87.3782 200.883L81.272 198.669C65.429 192.928 51.464 182.908 40.8906 169.69C30.1693 156.284 23.4542 140.21 21.4738 123.203L20.882 118.127L20.8877 118.122ZM78.273 127.226L31.2733 127.226C33.6918 140.648 39.4224 153.274 48.004 164C56.1475 174.18 66.5217 182.259 78.273 187.614L78.273 127.22L78.273 127.226Z" fill="#292929"/>
<path d="M20.8878 106.879L21.4796 101.803C23.46 84.7956 30.175 68.7213 40.8964 55.3157C51.4697 42.0978 65.4348 32.072 81.2778 26.3365L87.3839 24.123L87.3839 106.884L20.8934 106.884L20.8878 106.879ZM78.2731 37.3808C66.5217 42.7408 56.1475 50.8149 48.0041 60.9943C39.4225 71.7257 33.6919 84.3461 31.2733 97.7688L78.2731 97.7688L78.2731 37.3751L78.2731 37.3808Z" fill="#292929"/>
<path d="M137.622 106.878L137.622 24.1172L143.728 26.3306C159.571 32.0718 173.53 42.0919 184.109 55.3098C194.831 68.7155 201.546 84.7898 203.526 101.797L204.118 106.873L137.627 106.873L137.622 106.878ZM146.727 37.3806L146.727 97.7744L193.727 97.7744C191.308 84.3516 185.577 71.7255 176.996 60.9998C168.852 50.8204 158.478 42.7406 146.727 37.3863L146.727 37.3806Z" fill="#292929"/>
<path d="M137.622 200.883L137.622 118.122L204.118 118.122L203.526 123.197C201.546 140.205 194.831 156.279 184.109 169.684C173.536 182.902 159.571 192.928 143.728 198.664L137.622 200.877L137.622 200.883ZM146.727 127.226L146.727 187.619C158.478 182.259 168.852 174.185 176.996 164.006C185.577 153.274 191.308 140.654 193.727 127.231L146.727 127.231L146.727 127.226Z" fill="#292929"/>
<path d="M-0.0142795 112.5C-0.0142783 84.2035 10.5306 57.1589 29.6856 36.3506C48.7211 15.6731 74.5627 2.92175 102.459 0.452291L107.415 0.0141602L107.415 224.986L102.459 224.548C74.5627 222.078 48.7211 209.327 29.6856 188.649C10.5363 167.841 -0.0142808 140.796 -0.0142795 112.5ZM98.3101 10.0798C74.5855 13.3402 52.7502 24.7372 36.3893 42.5185C18.7879 61.6426 9.09656 86.4966 9.09656 112.5C9.09656 138.503 18.7879 163.363 36.3893 182.481C52.7501 200.263 74.5855 211.66 98.3101 214.92L98.3101 10.0798Z" fill="#292929"/>
<path d="M117.59 224.986L117.59 0.0141555L122.547 0.452286C150.443 2.92175 176.284 15.6731 195.32 36.3506C214.469 57.1589 225.014 84.2035 225.014 112.5C225.014 140.796 214.469 167.841 195.314 188.649C176.279 209.332 150.437 222.078 122.541 224.548L117.585 224.986L117.59 224.986ZM126.695 10.0798L126.695 214.92C150.42 211.66 172.255 200.263 188.616 182.481C206.218 163.357 215.909 138.503 215.909 112.5C215.909 86.4966 206.218 61.6369 188.616 42.5185C172.255 24.7372 150.42 13.3402 126.695 10.0798Z" fill="#292929"/>
<path d="M142.174 106.878L142.174 97.7744L82.8256 97.7744L82.8256 106.878L142.174 106.878Z" fill="#292929"/>
<path d="M142.174 127.226L142.174 118.122L82.8256 118.122L82.8256 127.226L142.174 127.226Z" fill="#292929"/>
<path d="M82.8257 87.8848L82.8257 78.7808L67.3071 78.7808L67.3071 87.8848L82.8257 87.8848Z" fill="#292929"/>
<path d="M82.8257 146.213L82.8257 137.109L67.3071 137.109L67.3071 146.213L82.8257 146.213Z" fill="#292929"/>
<path d="M71.8653 163.585C68.7183 161.081 62.7601 154.003 62.7601 154.003C60.7058 151.545 58.8335 148.933 57.1661 146.213L71.8653 146.213L71.8653 137.109L42.4328 137.109L45.4375 143.579C49.8365 153.058 56.3751 161.69 64.3478 168.547L71.871 175.016L71.871 163.591L71.8653 163.585Z" fill="#292929"/>
<path d="M71.8652 78.781L57.1661 78.781C58.8335 76.0555 60.7057 73.4495 62.7601 70.9914C62.7601 70.9914 68.7183 63.913 71.8652 61.4094L71.8652 49.9839L64.3421 56.4534C56.3694 63.3099 49.8307 71.9416 45.4318 81.4212L42.4271 87.8907L71.8595 87.8907L71.8595 78.7867L71.8652 78.781Z" fill="#292929"/>
<path d="M167.839 146.213C166.172 148.933 164.3 151.539 162.245 153.997C162.245 153.997 156.287 161.076 153.14 163.579L153.14 175.005L160.663 168.535C168.636 161.679 175.175 153.047 179.574 143.573L182.578 137.104L153.146 137.104L153.146 146.208L167.845 146.208L167.839 146.213Z" fill="#292929"/>
<path d="M179.568 81.4155C175.169 71.9416 168.63 63.3156 160.658 56.4534L153.135 49.9839L153.135 61.4094C156.282 63.913 162.24 70.9914 162.24 70.9914C164.294 73.4495 166.166 76.0555 167.834 78.7753L153.135 78.7753L153.135 87.8793L182.567 87.8793L179.562 81.4098L179.568 81.4155Z" fill="#292929"/>
<path d="M50.4226 122.679L50.4226 102.326L41.3174 102.326L41.3174 122.679L50.4226 122.679Z" fill="#292929"/>
</g>
<defs>
<clipPath id="clip0_2706_44038">
<rect width="225" height="225" fill="white"/>
</clipPath>
</defs>
</svg>
