<svg width="225" height="225" viewBox="0 0 225 225" fill="none" xmlns="http://www.w3.org/2000/svg">
<g clip-path="url(#clip0_2660_18009)">
<path d="M108.802 210.599C81.307 210.599 45.657 195.268 27.982 161.023L23.2759 151.911L30.6664 159.018C30.7457 159.097 30.8986 159.25 31.1194 159.477C40.696 169.274 52.5661 178.273 64.5382 184.825C88.4143 197.885 112.081 201.418 134.892 195.331C153.49 190.364 169.172 177.876 179.06 160.168C190.126 140.346 192.952 115.909 186.615 94.8026C180.776 75.355 166.895 64.9913 156.282 59.7302C139.582 51.4449 118.107 49.712 102.839 55.4205C88.1255 60.9195 76.4026 73.0218 70.6658 88.6127C65.4499 102.788 66.0276 117.88 72.2118 128.986C77.2125 137.962 88.2388 151.894 105.948 144.356C112.104 141.734 115.994 136.818 116.889 130.504C117.784 124.2 115.473 117.54 111.124 113.797L110.858 113.582C106.044 109.64 103.405 102.38 104.135 95.0914C104.917 87.2875 109.295 80.905 116.459 77.1163C122.671 73.826 129.314 73.305 135.663 75.6042C142.963 78.249 149.339 84.4049 154.629 93.8964C161.289 105.857 161.946 122.009 156.396 137.101C150.319 153.621 137.86 166.448 122.224 172.292C105.88 178.403 83.8441 176.665 66.0842 167.853C54.8654 162.286 40.1976 151.327 34.0077 130.707C28.016 110.75 30.0604 88.1369 39.6086 68.6668C49.6495 48.1999 66.8374 33.0281 88.0066 25.9491C137.067 9.54835 177.712 39.4728 182.809 43.4484H182.945L183.455 43.9751C200.96 62.3863 210.598 86.5229 210.598 111.939C210.598 138.664 200.456 163.447 182.033 181.71C163.243 200.342 137.237 210.604 108.802 210.604V210.599ZM37.5189 170.123C55.8111 195.636 85.3788 207.195 108.796 207.195C136.331 207.195 161.487 197.284 179.638 179.287C197.409 161.663 207.195 137.741 207.195 111.928C207.195 86.1152 197.924 64.1758 181.082 46.4046C180.119 45.6288 169.631 37.3718 153.281 31.2102C131.342 22.9419 109.742 22.251 89.0826 29.1601C68.7799 35.9446 52.2943 50.5048 42.6611 70.1505C33.481 88.8618 31.5159 110.575 37.2641 129.716C43.1028 149.17 56.9834 159.528 67.5963 164.794C84.2915 173.08 105.772 174.807 121.034 169.093C135.742 163.594 147.47 151.503 153.207 135.912C158.423 121.737 157.845 106.639 151.661 95.5331C138.404 71.7249 122.586 77.7053 118.05 80.1008C109.782 84.4728 107.901 91.5689 107.516 95.4142C106.916 101.395 109.028 107.511 112.789 110.756L113.004 110.931C118.412 115.354 121.323 123.408 120.247 130.968C119.171 138.506 114.567 144.361 107.273 147.465C100.749 150.24 94.1285 150.614 88.1312 148.547C80.8143 146.026 74.4545 139.995 69.233 130.622C62.573 118.662 61.9161 102.516 67.466 87.4234C73.5427 70.8981 86.0018 58.0709 101.638 52.2208C117.982 46.1101 140.018 47.8544 157.783 56.6664C168.996 62.2333 183.67 73.1917 189.86 93.8058C196.452 115.773 193.524 141.196 182.016 161.804C171.681 180.323 155.252 193.388 135.759 198.593C112.081 204.913 87.5648 201.277 62.9015 187.787C54.1121 182.979 45.3738 176.88 37.5189 170.112V170.123ZM129.626 111.554C122.53 111.554 116.753 105.778 116.753 98.6819C116.753 91.5858 122.53 85.8094 129.626 85.8094C136.722 85.8094 142.498 91.5858 142.498 98.6819C142.498 105.778 136.722 111.554 129.626 111.554ZM129.626 89.2073C124.398 89.2073 120.151 93.4547 120.151 98.6819C120.151 103.909 124.398 108.156 129.626 108.156C134.853 108.156 139.1 103.909 139.1 98.6819C139.1 93.4547 134.853 89.2073 129.626 89.2073Z" fill="#292929"/>
<path d="M188.24 94.3098C176.245 54.367 128.567 43.9807 102.244 53.8234C70.0882 65.8464 57.2326 105.568 70.7281 129.807C81.6581 149.43 95.7426 150.54 106.616 145.913C122.49 139.157 121.25 119.868 111.939 112.257C103.66 105.478 102.012 86.6757 117.263 78.6113C127.887 72.9877 142.221 75.0944 153.151 94.7175C166.646 118.956 153.791 158.678 121.635 170.695C95.3065 180.544 47.6335 170.157 35.6387 130.215C23.6497 90.2719 44.6603 42.2307 88.5503 27.5573C139.134 10.6469 180.974 44.1279 182.22 45.1416C164.562 26.5606 139.604 14.9736 111.939 14.9736C58.3879 14.9736 14.9736 58.3823 14.9736 111.934C14.9736 137.798 25.0995 161.3 41.6021 178.681L41.6304 178.709C41.6304 178.709 41.6644 178.743 41.6871 178.765C43.6182 180.623 77.6656 212.36 135.329 196.967C180.04 185.029 200.229 134.253 188.24 94.3098ZM94.2531 136.359C88.0802 136.359 83.0796 131.359 83.0796 125.186C83.0796 119.013 88.0802 114.012 94.2531 114.012C100.426 114.012 105.427 119.018 105.427 125.186C105.427 131.353 100.426 136.359 94.2531 136.359Z" fill="#292929"/>
<path d="M129.626 109.855C135.797 109.855 140.799 104.853 140.799 98.6818C140.799 92.5109 135.797 87.5083 129.626 87.5083C123.455 87.5083 118.452 92.5109 118.452 98.6818C118.452 104.853 123.455 109.855 129.626 109.855Z" fill="#292929"/>
<path d="M112.5 225C50.465 225 0 174.535 0 112.5C0 50.465 50.465 0 112.5 0C174.535 0 225 50.465 225 112.5C225 174.535 174.535 225 112.5 225ZM112.5 6.79587C54.2141 6.79587 6.79587 54.2141 6.79587 112.5C6.79587 170.786 54.2141 218.204 112.5 218.204C170.786 218.204 218.204 170.786 218.204 112.5C218.204 54.2141 170.786 6.79587 112.5 6.79587Z" fill="#292929"/>
</g>
<defs>
<clipPath id="clip0_2660_18009">
<rect width="225" height="225" fill="white"/>
</clipPath>
</defs>
</svg>
