<svg width="396" height="396" viewBox="0 0 396 396" fill="none" xmlns="http://www.w3.org/2000/svg">
<g clip-path="url(#clip0_2654_20859)">
<mask id="mask0_2654_20859" style="mask-type:luminance" maskUnits="userSpaceOnUse" x="22" y="22" width="167" height="167">
<path d="M22.8906 188.361H188.371V22.8906C99.1206 27.6006 27.6006 99.1206 22.8906 188.361Z" fill="white"/>
</mask>
<g mask="url(#mask0_2654_20859)">
<path d="M-41.7679 157.407L-57.3242 172.963L175.066 405.354L190.623 389.797L-41.7679 157.407Z" fill="#231815"/>
<path d="M-14.9886 130.639L-30.5449 146.195L201.846 378.586L217.402 363.03L-14.9886 130.639Z" fill="#231815"/>
<path d="M11.7829 103.856L-3.77344 119.412L228.617 351.803L244.174 336.246L11.7829 103.856Z" fill="#231815"/>
<path d="M38.5622 77.0882L23.0059 92.6445L255.397 325.035L270.953 309.479L38.5622 77.0882Z" fill="#231815"/>
<path d="M65.3317 50.3147L49.7754 65.8711L282.166 298.262L297.722 282.705L65.3317 50.3147Z" fill="#231815"/>
<path d="M92.113 23.5472L76.5566 39.1035L308.947 271.494L324.504 255.938L92.113 23.5472Z" fill="#231815"/>
<path d="M118.883 -3.23604L103.326 12.3203L335.717 244.711L351.273 229.155L118.883 -3.23604Z" fill="#231815"/>
<path d="M145.662 -30.0036L130.105 -14.4473L362.496 217.943L378.052 202.387L145.662 -30.0036Z" fill="#231815"/>
<path d="M172.431 -56.7868L156.875 -41.2305L389.266 191.16L404.822 175.604L172.431 -56.7868Z" fill="#231815"/>
</g>
<path d="M22.8906 207.119C27.6006 296.359 99.1306 367.889 188.371 372.599V207.119H22.8906ZM147.161 237.199C151.021 233.339 155.791 232.859 158.441 235.499C161.091 238.139 160.611 242.919 156.741 246.779C152.451 251.069 146.921 250.739 138.171 255.759C143.261 247.209 142.531 241.819 147.151 237.189L147.161 237.199ZM121.501 220.199C125.241 220.199 128.281 223.909 128.281 229.379C128.281 235.449 124.141 239.119 121.501 248.859C119.051 239.209 114.721 235.919 114.721 229.379C114.721 223.919 117.751 220.199 121.501 220.199ZM69.2406 272.449C69.2406 268.709 72.9506 265.669 78.4206 265.669C84.4906 265.669 88.1606 269.809 97.9006 272.449C88.2506 274.899 84.9606 279.229 78.4206 279.229C72.9606 279.229 69.2406 276.199 69.2406 272.449ZM95.8306 307.699C91.9706 311.559 87.2006 312.039 84.5506 309.399C81.9006 306.759 82.3806 301.979 86.2506 298.119C90.5406 293.829 96.0706 294.159 104.821 289.139C99.7306 297.689 100.461 303.079 95.8406 307.709L95.8306 307.699ZM86.2406 246.779C82.3806 242.919 81.9006 238.149 84.5406 235.499C87.1806 232.849 91.9606 233.329 95.8206 237.199C100.111 241.489 99.7806 247.019 104.801 255.769C96.2506 250.679 90.8606 251.409 86.2306 246.789L86.2406 246.779ZM121.501 324.699C117.761 324.699 114.721 320.989 114.721 315.519C114.721 309.449 118.861 305.779 121.501 296.039C123.951 305.689 128.281 308.979 128.281 315.519C128.281 320.979 125.251 324.699 121.501 324.699ZM121.501 284.399C114.901 284.399 109.551 279.049 109.551 272.449C109.551 265.849 114.901 260.499 121.501 260.499C128.101 260.499 133.451 265.849 133.451 272.449C133.451 279.049 128.101 284.399 121.501 284.399ZM158.441 309.399C155.791 312.049 151.021 311.569 147.161 307.699C142.871 303.409 143.201 297.879 138.181 289.129C146.731 294.219 152.121 293.489 156.751 298.109C160.611 301.969 161.091 306.739 158.451 309.389L158.441 309.399ZM164.571 279.229C158.501 279.229 154.831 275.089 145.091 272.449C154.741 269.999 158.031 265.669 164.571 265.669C170.031 265.669 173.751 268.699 173.751 272.449C173.751 276.199 170.041 279.229 164.571 279.229Z" fill="#231815"/>
<path d="M207.119 22.8906V188.371H372.599C367.889 99.1306 296.359 27.6006 207.119 22.8906ZM299.659 87.7806C303.519 83.9206 308.289 83.4406 310.939 86.0806C313.589 88.7206 313.109 93.5006 309.239 97.3606C304.949 101.651 299.419 101.321 290.669 106.341C295.759 97.7906 295.029 92.4006 299.649 87.7706L299.659 87.7806ZM273.989 70.7806C277.729 70.7806 280.769 74.4906 280.769 79.9606C280.769 86.0306 276.629 89.7006 273.989 99.4406C271.539 89.7906 267.209 86.5006 267.209 79.9606C267.209 74.5006 270.239 70.7806 273.989 70.7806ZM221.739 123.031C221.739 119.291 225.449 116.251 230.919 116.251C236.989 116.251 240.659 120.391 250.399 123.031C240.749 125.481 237.459 129.811 230.919 129.811C225.459 129.811 221.739 126.781 221.739 123.031ZM248.319 158.281C244.459 162.141 239.689 162.621 237.039 159.981C234.389 157.341 234.869 152.561 238.739 148.701C243.029 144.411 248.559 144.741 257.309 139.721C252.219 148.271 252.949 153.661 248.329 158.291L248.319 158.281ZM238.739 97.3706C234.879 93.5106 234.399 88.7406 237.039 86.0906C239.679 83.4406 244.459 83.9206 248.319 87.7906C252.609 92.0806 252.279 97.6106 257.299 106.361C248.749 101.271 243.359 102.001 238.729 97.3806L238.739 97.3706ZM273.989 175.291C270.249 175.291 267.209 171.581 267.209 166.111C267.209 160.041 271.349 156.371 273.989 146.631C276.439 156.281 280.769 159.571 280.769 166.111C280.769 171.571 277.739 175.291 273.989 175.291ZM273.989 134.991C267.389 134.991 262.039 129.641 262.039 123.041C262.039 116.441 267.389 111.091 273.989 111.091C280.589 111.091 285.939 116.441 285.939 123.041C285.939 129.641 280.589 134.991 273.989 134.991ZM310.939 159.981C308.289 162.631 303.519 162.151 299.659 158.281C295.369 153.991 295.699 148.461 290.679 139.711C299.229 144.801 304.619 144.071 309.249 148.691C313.109 152.551 313.589 157.321 310.949 159.971L310.939 159.981ZM317.059 129.811C310.989 129.811 307.319 125.671 297.579 123.031C307.229 120.581 310.519 116.251 317.059 116.251C322.519 116.251 326.239 119.281 326.239 123.031C326.239 126.781 322.529 129.811 317.059 129.811Z" fill="#231815"/>
<path d="M197.74 395.48C88.71 395.48 0 306.78 0 197.74C0 88.7 88.71 0 197.74 0C306.77 0 395.48 88.71 395.48 197.74C395.48 306.77 306.77 395.48 197.74 395.48ZM197.74 8C93.12 8 8 93.12 8 197.74C8 302.36 93.12 387.48 197.74 387.48C302.36 387.48 387.48 302.36 387.48 197.74C387.48 93.12 302.37 8 197.74 8Z" fill="#231815"/>
<mask id="mask1_2654_20859" style="mask-type:luminance" maskUnits="userSpaceOnUse" x="207" y="207" width="166" height="166">
<path d="M207.119 372.589C296.359 367.879 367.889 296.359 372.599 207.109H207.119V372.589Z" fill="white"/>
</mask>
<g mask="url(#mask1_2654_20859)">
<path d="M519.029 353.57H190.379V375.57H519.029V353.57Z" fill="#231815"/>
<path d="M519.029 315.699H190.379V337.699H519.029V315.699Z" fill="#231815"/>
<path d="M519.029 277.84H190.379V299.84H519.029V277.84Z" fill="#231815"/>
<path d="M519.029 239.969H190.379V261.969H519.029V239.969Z" fill="#231815"/>
<path d="M519.029 202.1H190.379V224.1H519.029V202.1Z" fill="#231815"/>
</g>
</g>
<defs>
<clipPath id="clip0_2654_20859">
<rect width="395.48" height="395.48" fill="white"/>
</clipPath>
</defs>
</svg>
