<svg width="225" height="225" viewBox="0 0 225 225" fill="none" xmlns="http://www.w3.org/2000/svg">
<g clip-path="url(#clip0_2706_44017)">
<path d="M118.123 204.1V137.618H200.896L198.682 143.724C192.94 159.565 182.918 173.528 169.699 184.1C156.291 194.82 140.215 201.534 123.205 203.514L118.129 204.106L118.123 204.1ZM127.229 146.722V193.716C140.653 191.298 153.281 185.568 164.008 176.987C174.189 168.845 182.27 158.472 187.625 146.722H127.223H127.229Z" fill="#292929"/>
<path d="M106.878 204.101L101.802 203.509C84.7925 201.529 68.7161 194.814 55.3086 184.094C42.089 173.522 32.0618 159.559 26.3255 143.718L24.1118 137.613H106.884V204.095L106.878 204.101ZM37.3713 146.722C42.732 158.472 50.8072 168.845 60.988 176.988C71.7208 185.568 84.3429 191.298 97.7674 193.716V146.722H37.3656H37.3713Z" fill="#292929"/>
<path d="M106.878 87.3813H24.1062L26.3199 81.2759C32.0619 65.4349 42.0833 51.4773 55.303 40.8996C68.7104 30.1796 84.7869 23.4654 101.797 21.4853L106.873 20.8936V87.3756L106.878 87.3813ZM37.3714 78.2773H97.7732V31.2835C84.3487 33.7018 71.7209 39.4316 60.9938 48.0121C50.813 56.1545 42.7321 66.5274 37.3771 78.2773H37.3714Z" fill="#292929"/>
<path d="M200.896 87.3813H118.123V20.8936L123.2 21.4853C140.209 23.4654 156.286 30.1796 169.693 40.8996C182.913 51.4717 192.94 65.4349 198.676 81.2759L200.89 87.3813H200.896ZM127.229 78.2773H187.63C182.27 66.5274 174.195 56.1545 164.014 48.0121C153.281 39.4316 140.659 33.7018 127.234 31.2835V78.2773H127.229Z" fill="#292929"/>
<path d="M112.501 225C84.2006 225 57.1524 214.456 36.3412 195.304C15.661 176.271 2.90798 150.432 0.438189 122.54L0 117.584H225.002L224.563 122.54C222.094 150.432 209.341 176.271 188.66 195.304C167.849 214.451 140.801 225 112.501 225ZM10.067 126.688C13.3278 150.41 24.7264 172.242 42.51 188.601C61.6367 206.2 86.494 215.89 112.501 215.89C138.508 215.89 163.371 206.2 182.492 188.601C200.275 172.242 211.674 150.41 214.935 126.688H10.067Z" fill="#292929"/>
<path d="M225.002 107.41H0L0.438189 102.454C2.90798 74.5619 15.661 48.7235 36.3412 29.6905C57.1524 10.5436 84.2006 0 112.501 0C140.801 0 167.849 10.5436 188.66 29.6962C209.346 48.7292 222.094 74.5676 224.563 102.46L225.002 107.416V107.41ZM10.067 98.3063H214.935C211.674 74.5846 200.275 52.7521 182.492 36.3933C163.365 18.7941 138.508 9.10401 112.501 9.10401C86.494 9.10401 61.631 18.7941 42.51 36.3933C24.7264 52.7521 13.3278 74.5846 10.067 98.3063Z" fill="#292929"/>
<path d="M106.878 82.8296H97.7729V142.171H106.878V82.8296Z" fill="#292929"/>
<path d="M127.229 82.8296H118.123V142.171H127.229V82.8296Z" fill="#292929"/>
<path d="M87.8826 142.17H78.7773V157.687H87.8826V142.17Z" fill="#292929"/>
<path d="M146.219 142.17H137.113V157.687H146.219V142.17Z" fill="#292929"/>
<path d="M163.592 153.13C161.088 156.276 154.009 162.234 154.009 162.234C151.551 164.288 148.939 166.16 146.219 167.827V153.13H137.113V182.558L143.584 179.554C153.064 175.156 161.697 168.618 168.555 160.646L175.025 153.124H163.598L163.592 153.13Z" fill="#292929"/>
<path d="M78.7773 153.129V167.827C76.0514 166.16 73.445 164.287 70.9866 162.233C70.9866 162.233 63.9073 156.276 61.4034 153.129H49.9763L56.4467 160.652C63.3041 168.623 71.937 175.161 81.4178 179.559L87.8882 182.564V153.135H78.783L78.7773 153.129Z" fill="#292929"/>
<path d="M146.219 57.1673C148.939 58.8345 151.545 60.7065 154.004 62.7606C154.004 62.7606 161.083 68.718 163.587 71.8646H175.014L168.543 64.3424C161.686 56.3707 153.053 49.8329 143.578 45.4345L137.108 42.4302V71.8589H146.213V57.1616L146.219 57.1673Z" fill="#292929"/>
<path d="M81.4121 45.4405C71.937 49.8389 63.3098 56.3767 56.4467 64.3484L49.9763 71.8706H61.4034C63.9073 68.724 70.9866 62.7666 70.9866 62.7666C73.445 60.7125 76.0514 58.8405 78.7716 57.1733V71.8706H87.8768V42.4419L81.4064 45.4462L81.4121 45.4405Z" fill="#292929"/>
<path d="M122.682 174.569H102.326V183.673H122.682V174.569Z" fill="#292929"/>
</g>
<defs>
<clipPath id="clip0_2706_44017">
<rect width="225.002" height="225" fill="white"/>
</clipPath>
</defs>
</svg>
