<svg width="226" height="225" viewBox="0 0 226 225" fill="none" xmlns="http://www.w3.org/2000/svg">
<path d="M20.9021 118.121L87.3926 118.121L87.3926 200.893L81.2864 198.679C65.4434 192.937 51.4784 182.916 40.905 169.696C30.1837 156.289 23.4686 140.212 21.4883 123.203L20.8964 118.127L20.9021 118.121ZM78.2874 127.226L31.2877 127.226C33.7062 140.651 39.4368 153.278 48.0184 164.005C56.1619 174.186 66.5361 182.267 78.2874 187.622L78.2874 127.221L78.2874 127.226Z" fill="#292929"/>
<path d="M20.9023 106.877L21.4941 101.801C23.4745 84.7916 30.1895 68.7153 40.9109 55.3079C51.4843 42.0883 65.4493 32.0613 81.2923 26.325L87.3984 24.1113L87.3984 106.883L20.908 106.883L20.9023 106.877ZM78.2876 37.3707C66.5362 42.7314 56.162 50.8065 48.0186 60.9872C39.437 71.72 33.7064 84.342 31.2879 97.7664L78.2876 97.7664L78.2876 37.365L78.2876 37.3707Z" fill="#292929"/>
<path d="M137.637 106.877L137.637 24.1055L143.743 26.3192C159.586 32.0611 173.545 42.0825 184.124 55.302C194.846 68.7094 201.561 84.7857 203.541 101.795L204.133 106.871L137.642 106.871L137.637 106.877ZM146.742 37.3706L146.742 97.7719L193.742 97.7719C191.323 84.3475 185.592 71.7198 177.011 60.9928C168.867 50.8121 158.493 42.7312 146.742 37.3762L146.742 37.3706Z" fill="#292929"/>
<path d="M137.637 200.893L137.637 118.121L204.133 118.121L203.541 123.197C201.561 140.207 194.846 156.283 184.124 169.69C173.551 182.91 159.586 192.937 143.743 198.673L137.637 200.887L137.637 200.893ZM146.742 127.226L146.742 187.628C158.493 182.267 168.867 174.192 177.011 164.011C185.592 153.278 191.323 140.656 193.742 127.232L146.742 127.232L146.742 127.226Z" fill="#292929"/>
<path d="M0.000124782 112.5C0.000126019 84.2 10.545 57.152 29.7 36.341C48.7355 15.6609 74.5771 2.90796 102.473 0.438186L107.43 0L107.43 225L102.473 224.562C74.5771 222.092 48.7355 209.339 29.7 188.659C10.5507 167.848 0.000123545 140.8 0.000124782 112.5ZM98.3245 10.0669C74.5999 13.3277 52.7646 24.7262 36.4037 42.5097C18.8023 61.6363 9.11097 86.4934 9.11096 112.5C9.11096 138.507 18.8023 163.369 36.4037 182.49C52.7645 200.274 74.5999 211.672 98.3245 214.933L98.3245 10.0669Z" fill="#292929"/>
<path d="M117.605 225L117.605 -4.69565e-06L122.562 0.438182C150.458 2.90796 176.3 15.6609 195.335 36.341C214.484 57.152 225.029 84.2 225.029 112.5C225.029 140.8 214.484 167.848 195.329 188.659C176.294 209.345 150.452 222.092 122.556 224.562L117.6 225L117.605 225ZM126.711 10.0669L126.711 214.933C150.435 211.672 172.271 200.274 188.631 182.49C206.233 163.364 215.924 138.507 215.924 112.5C215.924 86.4934 206.233 61.6306 188.631 42.5097C172.271 24.7262 150.435 13.3277 126.711 10.0669Z" fill="#292929"/>
<path d="M142.189 106.877L142.189 97.7715L82.8409 97.7715L82.8409 106.877L142.189 106.877Z" fill="#292929"/>
<path d="M142.189 127.228L142.189 118.123L82.8409 118.123L82.8409 127.228L142.189 127.228Z" fill="#292929"/>
<path d="M82.8398 87.8825L82.8398 78.7773L67.3212 78.7773L67.3212 87.8825L82.8398 87.8825Z" fill="#292929"/>
<path d="M82.8398 146.218L82.8398 137.113L67.3212 137.113L67.3212 146.218L82.8398 146.218Z" fill="#292929"/>
<path d="M71.881 163.592C68.734 161.088 62.7759 154.009 62.7759 154.009C60.7215 151.551 58.8492 148.939 57.1819 146.218L71.881 146.218L71.881 137.113L42.4486 137.113L45.4533 143.584C49.8522 153.064 56.3909 161.697 64.3636 168.555L71.8867 175.025L71.8867 163.598L71.881 163.592Z" fill="#292929"/>
<path d="M71.8809 78.7773L57.1817 78.7773C58.8491 76.0515 60.7213 73.4451 62.7757 70.9867C62.7757 70.9867 68.7339 63.9075 71.8809 61.4035L71.8809 49.9766L64.3577 56.4469C56.385 63.3042 49.8464 71.9371 45.4474 81.4178L42.4427 87.8882L71.8752 87.8882L71.8752 78.783L71.8809 78.7773Z" fill="#292929"/>
<path d="M167.855 146.218C166.187 148.938 164.315 151.545 162.261 154.003C162.261 154.003 156.303 161.082 153.156 163.586L153.156 175.013L160.679 168.543C168.651 161.686 175.19 153.053 179.589 143.578L182.594 137.107L153.161 137.107L153.161 146.213L167.86 146.213L167.855 146.218Z" fill="#292929"/>
<path d="M179.583 81.4121C175.184 71.9371 168.645 63.3099 160.673 56.4469L153.15 49.9766L153.15 61.4035C156.297 63.9075 162.255 70.9867 162.255 70.9867C164.309 73.4451 166.181 76.0515 167.849 78.7716L153.15 78.7716L153.15 87.8768L182.582 87.8768L179.577 81.4065L179.583 81.4121Z" fill="#292929"/>
<path d="M50.4375 122.68L50.4375 102.324L41.3323 102.324L41.3323 122.68L50.4375 122.68Z" fill="#292929"/>
</svg>
