<svg width="225" height="226" viewBox="0 0 225 226" fill="none" xmlns="http://www.w3.org/2000/svg">
<g clip-path="url(#clip0_2654_23252)">
<path d="M153.437 30.3646L120.192 87.947L48.5092 46.5612L53.4794 42.38C66.3735 31.5305 82.0348 24.4471 98.77 21.9001C115.742 19.3188 133.022 21.5416 148.743 28.3313L153.435 30.3568L153.437 30.3646ZM116.859 75.5091L140.359 34.8062C127.523 30.1885 113.722 28.8375 100.142 30.9058C87.2531 32.8679 75.0678 37.8118 64.5546 45.3113L116.864 75.512L116.859 75.5091Z" fill="#292929"/>
<path d="M163.175 35.9869L167.275 39.0376C181.016 49.2574 191.581 63.111 197.831 79.0996C203.993 94.8662 205.694 111.974 202.74 128.562L201.604 134.957L129.922 93.5715L163.167 35.989L163.175 35.9869ZM194.677 120.437C195.91 107.58 194.104 94.5582 189.359 82.4154C184.355 69.6171 176.289 58.3433 165.873 49.5365L142.373 90.2395L194.682 120.44L194.677 120.437Z" fill="#292929"/>
<path d="M104.808 137.082L176.491 178.467L171.52 182.649C158.626 193.498 142.968 200.576 126.23 203.128C109.258 205.71 91.9779 203.487 76.257 196.697L71.565 194.672L104.81 137.089L104.808 137.082ZM160.45 179.72L108.141 149.519L84.641 190.222C97.4762 194.84 111.277 196.191 124.858 194.123C137.747 192.161 149.932 187.217 160.445 179.717L160.45 179.72Z" fill="#292929"/>
<path d="M23.3875 90.0732L95.0699 131.459L61.8218 189.046L57.7216 185.996C43.9811 175.776 33.4161 161.922 27.1657 145.934C21.0039 130.167 19.3027 113.06 22.2565 96.471L23.3924 90.0761L23.3875 90.0732ZM82.632 134.792L30.3228 104.591C29.0896 117.448 30.8958 130.47 35.6409 142.613C40.6449 155.411 48.7106 166.685 59.1272 175.492L82.627 134.789L82.632 134.792Z" fill="#292929"/>
<path d="M168.757 15.0741C193.266 29.2241 211.417 51.8803 219.863 78.8745C228.254 105.7 226.378 134.456 214.569 159.849L212.47 164.361L17.6144 51.8608L20.4722 47.7874C36.559 24.8637 60.5242 8.86065 87.9514 2.71549C115.549 -3.46279 144.249 0.924126 168.757 15.0741ZM208.304 151.442C217.343 129.266 218.389 104.656 211.169 81.5957C203.405 56.7891 186.724 35.9677 164.202 22.9643C141.679 9.96103 115.302 5.92256 89.9419 11.6054C66.3605 16.8826 45.5714 30.0932 30.8851 49.009L208.304 151.442Z" fill="#292929"/>
<path d="M12.5269 60.6726L207.383 173.173L204.525 177.246C188.438 200.17 164.473 216.173 137.046 222.318C109.448 228.496 80.7513 224.104 56.2428 209.954C31.7343 195.804 13.5825 173.148 5.13713 146.154C-3.25956 119.326 -1.37818 90.5728 10.4309 65.1793L12.5297 60.6676L12.5269 60.6726ZM194.112 176.024L16.6925 73.5913C7.65408 95.7678 6.60785 120.377 13.8284 143.438C21.5918 168.244 38.273 189.066 60.7954 202.069C83.3178 215.072 109.695 219.111 135.055 213.428C158.636 208.151 179.426 194.94 194.112 176.024Z" fill="#292929"/>
<path d="M102.532 141.024L110.417 145.577L140.092 94.1793L132.206 89.6267L102.532 141.024Z" fill="#292929"/>
<path d="M84.9083 130.849L92.7936 135.402L122.468 84.0042L114.583 79.4516L84.9083 130.849Z" fill="#292929"/>
<path d="M148.657 99.1244L156.542 103.677L164.302 90.2375L156.416 85.6849L148.657 99.1244Z" fill="#292929"/>
<path d="M98.1368 69.9567L106.022 74.5093L113.781 61.0698L105.896 56.5172L98.1368 69.9567Z" fill="#292929"/>
<path d="M88.5708 51.7778C92.3127 50.3044 101.423 48.6841 101.423 48.6841C104.579 48.1342 107.777 47.8188 110.967 47.7349L103.617 60.4647L111.502 65.0173L126.218 39.528L119.113 38.895C108.703 37.9642 97.957 39.3104 88.032 42.7863L78.667 46.0664L88.563 51.7799L88.5708 51.7778Z" fill="#292929"/>
<path d="M162.022 94.1851L169.372 81.4552C170.899 84.2621 172.22 87.1867 173.322 90.1951C173.322 90.1951 176.474 98.8946 177.069 102.872L186.965 108.585L185.123 98.835C183.17 88.5018 178.963 78.5227 172.952 69.9728L168.851 64.1355L154.135 89.6247L162.02 94.1773L162.022 94.1851Z" fill="#292929"/>
<path d="M55.6299 143.581C54.1078 140.777 52.7868 137.852 51.685 134.844C51.685 134.844 48.5332 126.144 47.9383 122.167L38.0422 116.453L39.8841 126.204C41.8364 136.537 46.0433 146.516 52.0495 155.063L56.1506 160.901L70.8669 135.411L62.9816 130.859L55.632 143.589L55.6299 143.581Z" fill="#292929"/>
<path d="M105.889 186.141C116.294 187.069 127.035 185.72 136.965 182.247L146.33 178.967L136.434 173.253C132.692 174.727 123.582 176.347 123.582 176.347C120.426 176.897 117.233 177.215 114.043 177.299L121.393 164.569L113.507 160.017L98.7912 185.506L105.897 186.139L105.889 186.141Z" fill="#292929"/>
<path d="M134.722 53.6632L152.35 63.8411L156.903 55.9558L139.274 45.7779L134.722 53.6632Z" fill="#292929"/>
</g>
<defs>
<clipPath id="clip0_2654_23252">
<rect width="225" height="225.028" fill="white"/>
</clipPath>
</defs>
</svg>
