<svg width="100" height="89" viewBox="0 0 100 89" fill="none" xmlns="http://www.w3.org/2000/svg">
<path d="M-3.43242e-06 10.0001C-3.67383e-06 4.47723 4.50572 -0.0836992 9.95823 0.794929C20.2503 2.45342 29.8021 6.65967 37.3195 12.9642C47.2173 21.265 52.7778 32.5233 52.7778 44.2624C52.7778 56.0015 47.2173 67.2597 37.3195 75.5605C29.8021 81.8651 20.2504 86.0713 9.95824 87.7298C4.50573 88.6084 6.50676e-06 84.0475 5.33493e-06 78.5247L-1.93477e-06 44.2624L-3.43242e-06 10.0001Z" fill="#292929"/>
<path d="M100 10.0001C100 4.47723 95.4943 -0.0836988 90.0418 0.79493C79.7496 2.45342 70.1979 6.65967 62.6805 12.9642C52.7827 21.265 47.2222 32.5233 47.2222 44.2624C47.2222 56.0015 52.7827 67.2597 62.6805 75.5605C70.1979 81.8651 79.7496 86.0713 90.0418 87.7298C95.4943 88.6084 100 84.0475 100 78.5247L100 44.2624L100 10.0001Z" fill="#292929"/>
</svg>
