<svg width="226" height="225" viewBox="0 0 226 225" fill="none" xmlns="http://www.w3.org/2000/svg">
<g clip-path="url(#clip0_2706_43553)">
<circle cx="113.372" cy="112.5" r="107.803" stroke="#292929" stroke-width="9.39409"/>
<path d="M63.0061 49.557C49.9704 44.9643 42.4362 42.4156 36.5722 46.2962C33.494 52.9874 33.9634 61.9418 39.2372 72.8359" stroke="#292929" stroke-width="8.4776"/>
<path d="M118.917 137.44C101.911 159.129 65.8336 201.189 50.6033 195.012C43.3213 185.282 47.1901 160.918 59.3845 139.619" stroke="#292929" stroke-width="8.4776"/>
<path d="M92.2918 168.864C97.007 184.638 105.376 200.27 112.193 202.479C120.022 199.777 127.049 186.992 131.451 171.27" stroke="#292929" stroke-width="8.4776"/>
<path d="M36.8462 123.155C21.3776 131.223 12.974 139.435 12.2435 148.185C16.7139 157.374 35.0096 162.679 51.3955 157.867" stroke="#292929" stroke-width="8.4776"/>
<path d="M117.84 138.046C108.102 154.912 85.0374 153.098 58.9677 138.046C32.898 122.995 8.5618 94.4632 12.5249 77.6888C20.2037 70.2049 42.716 70.5249 64.4538 76.8074" stroke="#292929" stroke-width="8.4776"/>
<path d="M118.675 80.0909C123.705 95.9443 126.405 110.324 125.374 121.369C124.863 126.843 123.455 131.262 121.174 134.62C118.938 137.911 115.708 140.417 111.066 141.89C104.052 144.115 96.4206 141.235 88.7394 132.852C81.0955 124.511 74.1918 111.445 69.2221 95.7804C64.2948 80.2498 62.0369 62.1326 62.723 46.7255C63.0659 39.0236 64.1383 32.1531 65.8904 26.6959C67.3997 21.9952 69.2968 18.7029 71.3426 16.7108C73.6379 17.1437 76.7615 18.6329 80.586 21.5656C85.0912 25.0203 90.0176 30.0524 94.8883 36.1837C104.636 48.4548 113.77 64.6313 118.675 80.0909Z" stroke="#292929" stroke-width="8.4776"/>
<path d="M163.018 49.8398C176.242 45.0825 183.884 42.4395 189.776 46.2962C192.824 53.014 192.263 62.0484 186.825 73.0852" stroke="#292929" stroke-width="8.4776"/>
<path d="M104.868 137.44C121.874 159.129 157.951 201.189 173.181 195.012C180.463 185.282 176.595 160.918 164.4 139.619" stroke="#292929" stroke-width="8.4776"/>
<path d="M186.938 123.155C202.407 131.223 210.81 139.435 211.541 148.185C207.07 157.374 188.775 162.679 172.389 157.867" stroke="#292929" stroke-width="8.4776"/>
<path d="M105.945 138.046C115.683 154.912 138.747 153.098 164.817 138.046C190.887 122.995 215.223 94.4632 211.26 77.6888C203.581 70.2049 181.069 70.5249 159.331 76.8074" stroke="#292929" stroke-width="8.4776"/>
<path d="M105.11 80.0909C100.08 95.9443 97.3797 110.324 98.4109 121.369C98.922 126.843 100.33 131.262 102.611 134.62C104.846 137.911 108.077 140.417 112.719 141.89C119.733 144.115 127.364 141.235 135.045 132.852C142.689 124.511 149.593 111.445 154.563 95.7804C159.49 80.2498 161.748 62.1326 161.062 46.7255C160.719 39.0236 159.646 32.1531 157.894 26.6959C156.385 21.9952 154.488 18.7029 152.442 16.7108C150.147 17.1437 147.023 18.6329 143.199 21.5656C138.693 25.0203 133.767 30.0524 128.896 36.1837C119.148 48.4548 110.014 64.6313 105.11 80.0909Z" stroke="#292929" stroke-width="8.4776"/>
</g>
<defs>
<clipPath id="clip0_2706_43553">
<rect width="225" height="225" fill="white" transform="translate(0.796875)"/>
</clipPath>
</defs>
</svg>
