<svg width="320" height="316" viewBox="0 0 320 316" fill="none" xmlns="http://www.w3.org/2000/svg">
<circle cx="161.746" cy="157.72" r="151.135" stroke="black" stroke-width="13.1701"/>
<path d="M91.1376 69.4775C72.8621 63.0388 62.2994 59.4656 54.0783 64.9061C49.7628 74.2869 50.4208 86.8406 57.8146 102.114" stroke="black" stroke-width="11.8852"/>
<path d="M169.518 192.685C145.677 223.091 95.0977 282.058 73.7454 273.398C63.5364 259.757 68.9603 225.6 86.0562 195.739" stroke="black" stroke-width="11.8852"/>
<path d="M132.194 236.741C138.804 258.855 150.537 280.771 160.095 283.868C171.07 280.08 180.921 262.156 187.094 240.114" stroke="black" stroke-width="11.8852"/>
<path d="M54.4586 172.657C32.7723 183.969 20.9908 195.482 19.9667 207.748C26.2341 220.632 51.8839 228.068 74.8562 221.322" stroke="black" stroke-width="11.8852"/>
<path d="M168.01 193.537C154.359 217.182 122.023 214.638 85.4743 193.537C48.9256 172.436 14.8072 132.435 20.3633 108.918C31.1287 98.4261 62.69 98.8747 93.1656 107.682" stroke="black" stroke-width="11.8852"/>
<path d="M169.182 112.282C176.233 134.508 180.019 154.668 178.573 170.152C177.857 177.828 175.883 184.023 172.686 188.729C169.551 193.343 165.022 196.858 158.514 198.922C148.681 202.042 137.982 198.003 127.213 186.252C116.497 174.557 106.818 156.24 99.8509 134.278C92.9431 112.505 89.7776 87.1055 90.7394 65.5054C91.2202 54.7077 92.7236 45.0755 95.1801 37.4248C97.296 30.8346 99.9557 26.2189 102.824 23.426C106.042 24.0329 110.421 26.1207 115.783 30.2323C122.099 35.0757 129.005 42.1304 135.834 50.7262C149.5 67.9298 162.306 90.6087 169.182 112.282Z" stroke="black" stroke-width="11.8852"/>
<path d="M231.349 69.8741C249.889 63.2045 260.604 59.4992 268.863 64.9061C273.136 74.3242 272.349 86.99 264.726 102.463" stroke="black" stroke-width="11.8852"/>
<path d="M149.826 192.685C173.667 223.091 224.246 282.058 245.598 273.398C255.807 259.757 250.383 225.6 233.288 195.739" stroke="black" stroke-width="11.8852"/>
<path d="M264.887 172.657C286.573 183.969 298.355 195.482 299.379 207.748C293.112 220.632 267.462 228.068 244.489 221.322" stroke="black" stroke-width="11.8852"/>
<path d="M151.333 193.537C164.985 217.182 197.321 214.638 233.869 193.537C270.418 172.436 304.537 132.435 298.98 108.918C288.215 98.4261 256.654 98.8747 226.178 107.682" stroke="black" stroke-width="11.8852"/>
<path d="M150.162 112.282C143.111 134.508 139.325 154.668 140.77 170.152C141.487 177.828 143.461 184.023 146.658 188.729C149.793 193.343 154.321 196.858 160.829 198.922C170.663 202.042 181.362 198.003 192.13 186.252C202.847 174.557 212.525 156.24 219.493 134.278C226.401 112.505 229.566 87.1055 228.604 65.5054C228.124 54.7077 226.62 45.0755 224.164 37.4248C222.048 30.8346 219.388 26.2189 216.52 23.426C213.302 24.0329 208.923 26.1207 203.561 30.2323C197.245 35.0757 190.338 42.1304 183.51 50.7262C169.843 67.9298 157.038 90.6087 150.162 112.282Z" stroke="black" stroke-width="11.8852"/>
</svg>
