<svg width="37" height="28" viewBox="0 0 37 28" fill="none" xmlns="http://www.w3.org/2000/svg">
<g clip-path="url(#clip0_2654_22725)">
<mask id="path-2-inside-1_2654_22725" fill="white">
<path d="M6 6C6 5.44772 6.44772 5 7 5H13.2V23H7C6.44772 23 6 22.5523 6 22V6Z"/>
</mask>
<path d="M5 6C5 4.89543 5.89543 4 7 4H13.2V6H7H5ZM13.2 24H7C5.89543 24 5 23.1046 5 22H7H13.2V24ZM7 24C5.89543 24 5 23.1046 5 22V6C5 4.89543 5.89543 4 7 4V6V22V24ZM13.2 5V23V5Z" fill="white" mask="url(#path-2-inside-1_2654_22725)"/>
<path fill-rule="evenodd" clip-rule="evenodd" d="M13.8 26.5C13.4687 26.5 13.2 26.2314 13.2 25.9L13.2 2.1C13.2 1.76863 13.4687 1.5 13.8 1.5C14.1314 1.5 14.4 1.76863 14.4 2.1L14.4 25.9C14.4 26.2314 14.1314 26.5 13.8 26.5Z" fill="white"/>
<mask id="path-5-inside-2_2654_22725" fill="white">
<path d="M14.4 5H21.6V23H14.4V5Z"/>
</mask>
<path d="M14.4 6H21.6V4H14.4V6ZM21.6 22H14.4V24H21.6V22Z" fill="white" mask="url(#path-5-inside-2_2654_22725)"/>
<path fill-rule="evenodd" clip-rule="evenodd" d="M22.2 26.5C21.8687 26.5 21.6 26.2314 21.6 25.9V2.1C21.6 1.76863 21.8687 1.5 22.2 1.5C22.5314 1.5 22.8 1.76863 22.8 2.1V25.9C22.8 26.2314 22.5314 26.5 22.2 26.5Z" fill="white"/>
<mask id="path-8-inside-3_2654_22725" fill="white">
<path d="M22.8 5H29C29.5523 5 30 5.44772 30 6V22C30 22.5523 29.5523 23 29 23H22.8V5Z"/>
</mask>
<path d="M22.8 4H29C30.1046 4 31 4.89543 31 6H29H22.8V4ZM31 22C31 23.1046 30.1046 24 29 24H22.8V22H29H31ZM22.8 23V5V23ZM29 4C30.1046 4 31 4.89543 31 6V22C31 23.1046 30.1046 24 29 24V22V6V4Z" fill="white" mask="url(#path-8-inside-3_2654_22725)"/>
</g>
<defs>
<clipPath id="clip0_2654_22725">
<rect x="6" y="1.5" width="24" height="25" rx="2" fill="white"/>
</clipPath>
</defs>
</svg>
