<svg width="358" height="358" viewBox="0 0 358 358" fill="none" xmlns="http://www.w3.org/2000/svg">
<path fill-rule="evenodd" clip-rule="evenodd" d="M357.789 174.027H335.975V93.0278C349.2 117.186 357.015 144.729 357.789 174.027ZM297.909 45.1906C305.347 51.8187 312.228 59.0583 318.473 66.8306V174.027H297.909V45.1906ZM280.407 31.4389C274.257 27.1954 267.828 23.3268 261.154 19.8662L261.154 174.027H280.407V31.4389ZM223.087 5.37994C230.117 7.16563 236.981 9.36749 243.652 11.9578L243.652 174.027H223.087V5.37994ZM205.585 1.85874C198.987 0.872085 192.271 0.245622 185.458 0V174.027H205.585L205.585 1.85874ZM357.409 191.529C357.058 196.548 356.499 201.509 355.742 206.405H185.458V191.529H357.409ZM185.458 223.907H352.129C350.345 230.786 348.162 237.503 345.606 244.034H185.458V223.907ZM185.458 261.536V284.29H323.5C328.756 277.094 333.488 269.49 337.641 261.536H185.458ZM185.458 321.044V301.792H308.929C302.335 308.762 295.187 315.203 287.555 321.044H185.458ZM185.458 338.546V357.679C212.112 356.718 237.28 349.928 259.725 338.546H185.458ZM167.956 174.027V0.210699C75.7994 5.76737 2.4544 81.0658 0 174.027H167.956ZM167.956 357.469V191.529H0.379444C0.731017 196.548 1.28953 201.509 2.0465 206.405H132.515H150.017V223.907V355.48C155.905 356.435 161.89 357.103 167.956 357.469ZM132.515 351.729V223.907H5.65928C7.44365 230.786 9.62686 237.503 12.1828 244.034H17.0016H94.8854H112.387V261.536V339.42V345.032C118.916 347.646 125.634 349.888 132.515 351.729ZM74.7576 324.395C81.1642 328.987 87.8864 333.166 94.8854 336.894V261.536H20.1482C23.5504 268.054 27.3421 274.336 31.4926 280.351H74.7576V324.395Z" fill="black"/>
</svg>
